<svg width="16" height="16" viewBox="0 0 16 16" fill="none" xmlns="http://www.w3.org/2000/svg">
<g clip-path="url(#clip0_224_3533)">
<path d="M7.99992 4.66671C7.63325 4.66671 7.33325 4.96671 7.33325 5.33337V7.33337H5.33325C4.96659 7.33337 4.66659 7.63337 4.66659 8.00004C4.66659 8.36671 4.96659 8.66671 5.33325 8.66671H7.33325V10.6667C7.33325 11.0334 7.63325 11.3334 7.99992 11.3334C8.36659 11.3334 8.66659 11.0334 8.66659 10.6667V8.66671H10.6666C11.0333 8.66671 11.3333 8.36671 11.3333 8.00004C11.3333 7.63337 11.0333 7.33337 10.6666 7.33337H8.66659V5.33337C8.66659 4.96671 8.36659 4.66671 7.99992 4.66671ZM7.99992 1.33337C4.31992 1.33337 1.33325 4.32004 1.33325 8.00004C1.33325 11.68 4.31992 14.6667 7.99992 14.6667C11.6799 14.6667 14.6666 11.68 14.6666 8.00004C14.6666 4.32004 11.6799 1.33337 7.99992 1.33337ZM7.99992 13.3334C5.05992 13.3334 2.66659 10.94 2.66659 8.00004C2.66659 5.06004 5.05992 2.66671 7.99992 2.66671C10.9399 2.66671 13.3333 5.06004 13.3333 8.00004C13.3333 10.94 10.9399 13.3334 7.99992 13.3334Z" fill="#9873FF"/>
</g>
<defs>
<clipPath id="clip0_224_3533">
<rect width="16" height="16" fill="white"/>
</clipPath>
</defs>
</svg>
